<svg width="25" height="25" viewBox="0 0 25 25" fill="none" xmlns="http://www.w3.org/2000/svg">
<path d="M8.98438 4.6875L8.74023 5.00488L7.8125 6.25H2.34375V20.3125H22.6562V6.25H17.1875L16.2598 5.00488L16.0156 4.6875H8.98438ZM9.76562 6.25H15.2344L16.1621 7.49512L16.4062 7.8125H21.0938V18.75H3.90625V7.8125H8.59375L8.83789 7.49512L9.76562 6.25ZM6.25 8.59375C5.8197 8.59375 5.46875 8.9447 5.46875 9.375C5.46875 9.8053 5.8197 10.1562 6.25 10.1562C6.6803 10.1562 7.03125 9.8053 7.03125 9.375C7.03125 8.9447 6.6803 8.59375 6.25 8.59375ZM12.5 8.59375C9.92126 8.59375 7.8125 10.7025 7.8125 13.2812C7.8125 15.86 9.92126 17.9688 12.5 17.9688C15.0787 17.9688 17.1875 15.86 17.1875 13.2812C17.1875 10.7025 15.0787 8.59375 12.5 8.59375ZM12.5 10.1562C14.2365 10.1562 15.625 11.5448 15.625 13.2812C15.625 15.0177 14.2365 16.4062 12.5 16.4062C10.7635 16.4062 9.375 15.0177 9.375 13.2812C9.375 11.5448 10.7635 10.1562 12.5 10.1562Z" fill="black"/>
</svg>
