<svg width="25" height="25" viewBox="0 0 25 25" fill="none" xmlns="http://www.w3.org/2000/svg">
<path d="M1.5625 3.90625V21.0938H23.4375V3.90625H1.5625ZM3.125 5.46875H21.875V16.333L17.749 12.1826L17.1875 11.6211L13.6475 15.1611L9.15527 10.6201L8.59375 10.0586L3.125 15.5273V5.46875ZM18.75 7.03125C17.8864 7.03125 17.1875 7.7301 17.1875 8.59375C17.1875 9.4574 17.8864 10.1562 18.75 10.1562C19.6136 10.1562 20.3125 9.4574 20.3125 8.59375C20.3125 7.7301 19.6136 7.03125 18.75 7.03125ZM8.59375 12.2803L15.7715 19.5312H3.125V17.749L8.59375 12.2803ZM17.1875 13.8428L21.875 18.5303V19.5312H17.9932L14.7461 16.2598L17.1875 13.8428Z" fill="black"/>
</svg>
