<svg width="25" height="25" viewBox="0 0 25 25" fill="none" xmlns="http://www.w3.org/2000/svg">
<path d="M18.6768 3.10059C17.8589 3.10059 17.041 3.41797 16.4062 4.05273L4.05273 16.4062L4.00391 16.6504L3.14941 20.9473L2.90527 22.0947L4.05273 21.8506L8.34961 20.9961L8.59375 20.9473L20.9473 8.59375C22.2168 7.32422 22.2168 5.32227 20.9473 4.05273C20.3125 3.41797 19.4946 3.10059 18.6768 3.10059ZM18.6768 4.58984C19.0704 4.58984 19.4672 4.7699 19.8486 5.15137C20.6085 5.91125 20.6085 6.73523 19.8486 7.49512L19.2871 8.03223L16.9678 5.71289L17.5049 5.15137C17.8864 4.7699 18.2831 4.58984 18.6768 4.58984ZM15.8691 6.81152L18.1885 9.13086L8.74023 18.5791C8.22754 17.5781 7.42188 16.7725 6.4209 16.2598L15.8691 6.81152ZM5.41992 17.5293C6.35681 17.9077 7.09229 18.6432 7.4707 19.5801L4.90723 20.0928L5.41992 17.5293Z" fill="black"/>
</svg>
