<svg width="25" height="25" viewBox="0 0 25 25" fill="none" xmlns="http://www.w3.org/2000/svg">
<path d="M12.5 3.125C7.33032 3.125 3.125 7.33032 3.125 12.5C3.125 17.6697 7.33032 21.875 12.5 21.875C15.6647 21.875 18.4692 20.3033 20.166 17.8955L18.8965 16.9922C17.4835 19.0002 15.1489 20.3125 12.5 20.3125C8.17566 20.3125 4.6875 16.8243 4.6875 12.5C4.6875 8.17566 8.17566 4.6875 12.5 4.6875C15.1489 4.6875 17.4805 5.99976 18.8965 8.00781L20.166 7.10449C18.4692 4.69666 15.6647 3.125 12.5 3.125ZM18.2373 8.81348L17.1143 9.93652L18.8965 11.7188H9.375V13.2812H18.8965L17.1143 15.0635L18.2373 16.1865L21.3623 13.0615L21.8994 12.5L21.3623 11.9385L18.2373 8.81348Z" fill="black"/>
</svg>
