<svg width="25" height="25" viewBox="0 0 25 25" fill="none" xmlns="http://www.w3.org/2000/svg">
<path d="M10.9375 3.125C10.5286 3.125 10.1105 3.26843 9.81445 3.56445C9.51843 3.86047 9.375 4.27856 9.375 4.6875V5.46875H3.90625V7.03125H4.76074L6.25 21.167L6.32324 21.875H18.6768L18.75 21.167L20.2393 7.03125H21.0938V5.46875H15.625V4.6875C15.625 4.27856 15.4816 3.86047 15.1855 3.56445C14.8895 3.26843 14.4714 3.125 14.0625 3.125H10.9375ZM10.9375 4.6875H14.0625V5.46875H10.9375V4.6875ZM6.34766 7.03125H18.6523L17.2607 20.3125H7.73926L6.34766 7.03125ZM9.375 9.375V17.9688H10.9375V9.375H9.375ZM11.7188 9.375V17.9688H13.2812V9.375H11.7188ZM14.0625 9.375V17.9688H15.625V9.375H14.0625Z" fill="black"/>
</svg>
